<svg width="248" height="229" viewBox="0 0 248 229" fill="none" xmlns="http://www.w3.org/2000/svg">
<path d="M121.039 1.12734C120.155 2.10234 120.064 2.37656 120.216 3.62578C120.521 6.4289 123.507 7.67812 125.792 5.9414C128.412 3.93047 126.858 -1.90735e-06 123.476 -1.90735e-06C122.166 -1.90735e-06 121.892 0.121873 121.039 1.12734Z" fill="url(#paint0_linear_74_1471)"/>
<path d="M40.8151 12.6445C35.3612 14.1375 31.2174 18.525 30.212 23.857C29.7245 26.6297 30.4253 28.0312 32.3753 28.0312C33.9901 28.0312 34.9651 27.0258 35.3917 24.9234C36.0315 21.8461 37.8596 19.6828 41.0893 18.2203L42.5823 17.5195H129.266H215.949L217.686 18.3727C219.667 19.3476 221.373 21.1148 222.287 23.1258C222.896 24.4055 222.957 25.1976 223.049 32.2055C223.11 36.4406 223.079 39.914 222.988 39.914C222.896 39.914 221.769 39.0305 220.489 37.9641C213.024 31.718 202.97 29.768 194.012 32.8758C188.71 34.6734 183.378 38.7562 180.332 43.357C178.412 46.2211 177.62 47.9578 176.706 51.1875C176.096 53.3812 176.066 54.2344 175.974 70.2914L175.914 87.1101L175.182 88.268C173.324 91.2234 172.44 93.9656 171.617 99.3281C170.856 104.081 170.856 105.209 171.557 105.787C172.318 106.488 176.889 108.895 179.753 110.114C184.536 112.155 190.508 113.862 194.713 114.41L196.297 114.623V116.177C196.328 119.163 197.851 121.814 200.075 122.82L201.324 123.368L202.178 132.448C202.635 137.445 203.122 142.716 203.214 144.148L203.396 146.768L201.995 147.56C200.471 148.474 198.917 150.577 198.399 152.466C197.668 155.177 198.582 158.255 200.776 160.296C202.269 161.728 203.579 162.398 205.438 162.612L206.931 162.795L207.266 164.348C207.449 165.202 207.814 167.456 208.058 169.376C208.546 173.306 208.911 173.977 210.526 173.977C211.989 173.977 212.72 173.489 213.268 172.24C213.756 171.052 213.725 170.899 212.567 164.562C211.806 160.54 211.806 160.479 212.385 159.839C213.756 158.377 214.426 156.548 214.396 154.324C214.396 150.912 213.146 148.84 210.069 147.134L208.667 146.372L207.814 137.384C206.474 122.911 206.474 123.094 207.053 123.094C207.814 123.094 209.947 121.022 210.709 119.62C211.135 118.767 211.349 117.731 211.41 116.391L211.44 114.41L213.695 114.045C214.914 113.831 217.412 113.252 219.24 112.734C221.068 112.216 222.653 111.881 222.744 111.973C222.866 112.095 222.988 117.609 222.988 124.252C223.018 130.924 223.049 136.652 223.079 137.018C223.171 138.968 225.852 139.608 227.406 138.054L228.289 137.17V124.312C228.289 112.765 228.228 111.363 227.771 110.571C227.497 110.114 227.314 109.657 227.406 109.627C227.467 109.566 228.807 108.926 230.392 108.164C234.017 106.427 234.992 105.666 234.992 104.477C234.992 102.68 233.469 94.7578 232.768 92.8687C231.793 90.3703 230.544 87.8719 229.599 86.5922L228.838 85.5562L228.746 67.8539C228.685 58.1039 228.655 44.6367 228.655 37.9336C228.655 24.4055 228.503 23.1258 226.705 19.7437C225.029 16.575 221.739 13.8633 218.265 12.7969C216.376 12.1875 215.157 12.1875 129.296 12.218C58.1518 12.2484 42.0034 12.3094 40.8151 12.6445ZM207.205 37.3547C210.16 37.9641 213.39 39.4875 215.828 41.4375C219.057 44.0273 220.764 46.4039 222.317 50.4258L223.262 52.8633L223.353 67.5797L223.445 82.2961L222.439 81.8391C220.764 81.1383 214.304 78.0609 211.227 76.5375C206.504 74.1914 204.828 72.0586 204.828 68.3109C204.828 67.2445 204.981 67.0312 206.108 66.2695C207.967 65.0203 208.759 64.0758 209.978 61.5469C211.014 59.4141 211.074 59.0789 211.074 56.3672C211.074 53.9297 210.953 53.2289 210.343 51.9797C209.307 49.8773 208.028 48.5367 206.23 47.6226C201.538 45.2156 196.114 48.3234 194.774 54.2039C193.799 58.3781 195.81 63.8016 199.222 66.2086C200.471 67.0922 200.563 67.2445 200.563 68.5242C200.563 70.9617 200.014 72.2414 198.308 73.8867C196.998 75.1359 195.414 76.05 189.046 79.1273L181.337 82.8445L181.459 68.6156C181.581 52.8328 181.581 52.8328 183.714 48.5976C185.785 44.5148 188.893 41.4375 193.311 39.1523C194.743 38.3906 196.754 37.5984 197.729 37.3547C200.136 36.7758 204.341 36.7758 207.205 37.3547ZM204.524 52.2539C206.474 53.2594 207.205 56.55 206.078 59.1703C205.468 60.6023 203.61 62.4609 202.787 62.4609C201.995 62.4609 199.832 59.9625 199.405 58.5914C198.887 56.9156 198.948 55.8187 199.618 54.3562C200.685 52.0406 202.543 51.2484 204.524 52.2539ZM203.305 76.2937C203.305 76.7812 205.59 78.9141 206.078 78.9141C206.931 78.9141 205.864 79.5234 204.463 79.7976C203.305 80.0719 202.452 80.0719 201.264 79.8281C199.283 79.4016 199.039 79.0969 200.258 78.457C200.746 78.2133 201.538 77.4516 201.964 76.7812C202.726 75.6234 203.305 75.4406 203.305 76.2937ZM196.389 83.1797C199.984 85.5867 205.895 85.4953 209.734 82.9664L210.861 82.2047L216.467 85.0078C223.719 88.6336 225.303 89.8523 226.888 93.1125C227.802 95.0016 228.838 99.0844 228.96 101.4L229.051 102.984L225.73 104.508C223.902 105.361 222.378 106.031 222.317 106.031C222.257 106.031 222.196 104.203 222.196 101.948C222.196 96.3727 221.769 95.3672 219.362 95.3672C218.692 95.3672 218.113 95.6109 217.656 96.0984C217.016 96.7992 216.985 97.043 216.955 102.466L216.924 108.103L214.457 108.591C207.753 109.901 200.014 109.962 193.128 108.773C191.117 108.408 189.381 108.073 189.228 107.981C189.107 107.89 188.985 105.33 188.985 102.253C188.985 96.7992 188.985 96.6773 188.253 96.007C186.974 94.8187 184.689 95.2148 184.11 96.7687C183.927 97.1953 183.805 99.3891 183.805 101.644C183.805 103.929 183.683 105.727 183.531 105.727C183.287 105.727 176.767 102.771 176.553 102.558C176.523 102.497 176.828 100.791 177.224 98.7187C178.686 91.3453 180.301 89.4867 188.832 85.1601C191.849 83.6062 194.469 82.3266 194.682 82.3266C194.896 82.2961 195.657 82.6617 196.389 83.1797ZM206.657 115.873C206.657 117.213 205.956 118.127 204.646 118.493C202.817 119.011 201.538 118.127 201.05 116.025L200.867 115.202L203.061 115.08C204.28 115.05 205.59 114.959 205.986 114.928C206.565 114.867 206.657 115.02 206.657 115.873ZM207.54 151.552C210.496 153.105 209.703 157.554 206.443 157.645C205.042 157.676 204.158 157.066 203.396 155.573C202.878 154.568 203.031 153.684 203.945 152.527C205.011 151.155 206.169 150.851 207.54 151.552Z" fill="url(#paint1_linear_74_1471)"/>
<path d="M75.7016 20.475C74.6047 20.7797 73.5078 22.2117 73.5078 23.4C73.5078 24.3445 74.3 25.807 75.0008 26.2031C75.9148 26.6906 77.8648 26.5687 78.5656 25.9593C81.4297 23.6742 79.2664 19.5304 75.7016 20.475Z" fill="url(#paint2_linear_74_1471)"/>
<path d="M86.1218 20.3227C85.7562 20.3836 85.0859 20.8406 84.6289 21.3281C82.7398 23.3086 84.0804 26.5078 86.7921 26.5078C90.6921 26.5078 91.3625 21.1148 87.5234 20.3531C87.0968 20.2617 86.457 20.2617 86.1218 20.3227Z" fill="url(#paint3_linear_74_1471)"/>
<path d="M48.0055 22.0594C41.9422 23.461 37.25 27.6961 35.3 33.5766C32.8625 40.8891 35.2391 48.5368 41.3938 53.1985C43.0086 54.4172 46.3906 55.9711 48.6149 56.5196L49.4375 56.7328V62.1563V67.5797L48.0055 67.793C44.532 68.311 38.7125 70.6571 35.6352 72.7899C34.9344 73.2774 33.6547 74.2828 32.832 75.0446C31.5524 76.1719 31.0344 76.4461 29.6328 76.5985C21.2844 77.6649 14.1242 82.6618 10.468 90.0352C8.8836 93.1735 8.33516 95.3977 8.09141 99.1758C7.48204 109.87 13.4539 119.285 23.3563 123.216C24.5141 123.673 26.2508 124.221 27.2258 124.434C28.2008 124.617 29.1453 124.922 29.2977 125.074C29.5719 125.348 30.4555 128.365 34.3555 142.137C36.3359 149.053 36.2445 148.291 35.1781 149.388C32.4969 152.222 32.3141 155.878 34.6906 159.382L35.757 160.966L35.3 163.13C35.0563 164.318 34.6906 166.542 34.4774 168.096C34.1422 170.625 34.1422 170.96 34.6297 171.661C35.3305 172.758 36.4578 173.245 37.4633 172.88C38.7734 172.423 39.3219 171.295 39.8094 168.035C40.0836 166.359 40.4188 164.501 40.6016 163.891C40.8758 162.855 41.0281 162.764 42.2774 162.642C47.5485 162.033 50.7172 156.213 48.4016 151.277C47.2742 148.84 45.3242 147.377 42.582 146.92L41.3633 146.707L40.3883 143.66C38.682 138.267 35.0867 125.196 35.2695 124.952C35.3305 124.8 36.0922 124.617 36.9453 124.495C39.0477 124.221 42.9172 122.82 45.05 121.54C46.025 120.961 48.0055 119.377 49.4375 118.006C53.4289 114.197 55.6531 109.992 56.6281 104.477C58.1211 95.8242 54.6781 86.7141 48.0055 81.6868C45.7203 79.9805 42.643 78.2743 40.7539 77.6953C40.0836 77.4821 39.4133 77.2078 39.2609 77.086C39.0172 76.8422 42.3688 74.9227 42.9477 74.9532C43.0695 74.9836 43.6484 75.593 44.2274 76.3547C47.2438 80.468 55.5313 80.986 59.2789 77.2993C60.0102 76.5985 60.8328 75.6844 61.0766 75.3188L61.5641 74.5875L64.0016 76.1414C68.1149 78.7922 71.1008 82.6008 71.832 86.1047C72.0149 87.0188 71.9539 87.0797 70.4 87.7196C68.7547 88.4203 64.0016 89.6696 61.686 90.0352C60.0711 90.3094 59.1875 91.193 59.1875 92.5641C59.1875 94.9711 60.5586 95.55 64.6414 94.9102C66.1039 94.6664 68.3891 94.118 69.7297 93.661C72.5633 92.7164 76.8594 90.6141 77.3774 89.9133C78.2609 88.7555 77.5906 84.6422 75.9758 81.1992C74.0867 77.1469 70.461 73.4297 66.043 70.9618C63.5141 69.5602 61.0461 68.7071 57.4203 67.9758L54.7695 67.4274V62.0039V56.5805L56.3539 56.1844C64.1539 54.1735 69.6383 47.1047 69.6383 39C69.6688 34.0641 67.8102 29.8594 64.093 26.4164C61.9297 24.436 60.2539 23.4305 57.6945 22.5469C55.1961 21.7242 50.5953 21.4805 48.0055 22.0594ZM54.7695 27.5438C61.2594 29.2805 65.1899 35.4352 63.7578 41.6813C62.8742 45.4289 59.8578 49.0243 56.4453 50.3039C52.5758 51.736 48.0969 51.1571 44.7149 48.7196C40.2969 45.5508 38.743 39.1828 41.1195 34.0641C43.557 28.8844 49.3766 26.0813 54.7695 27.5438ZM55.8359 72.668C56.3234 72.9727 55.5922 73.7344 54.4039 74.2524C52.8805 74.8618 50.9 74.7703 49.7422 73.9477C47.6703 72.5766 48.4016 72.1805 52.85 72.3633C54.3125 72.4243 55.6836 72.5766 55.8359 72.668ZM37.6156 82.4485C42.5211 83.911 47.3352 87.7196 49.5289 91.8938C51.1438 95.0016 51.6617 97.561 51.4789 101.309C51.2047 106.732 49.3766 110.663 45.4461 114.38C41.8203 117.792 38.5906 119.133 33.4414 119.377C29.3891 119.529 27.2867 119.102 23.6 117.274C14.5203 112.826 10.8641 101.126 15.6781 91.9243C16.8055 89.761 20.7969 85.5868 22.9297 84.3375C27.1344 81.9 33.1063 81.1383 37.6156 82.4485ZM43.4352 152.648C44.532 153.867 44.532 155.299 43.4656 156.579C41.5766 158.834 38.1945 157.615 38.1641 154.69C38.1641 153.166 38.5906 152.405 39.7789 151.856C41.1195 151.277 42.4297 151.552 43.4352 152.648Z" fill="url(#paint4_linear_74_1471)"/>
<path d="M30.2422 87.2319C30.2422 88.8163 30.2117 88.8468 29.1453 89.2429C27.6828 89.7608 25.7937 91.528 25.0015 93.0515C24.575 93.8741 24.3008 95.0929 24.2094 96.6468L24.057 99.0233H22.7773C21.0406 99.0233 20.3398 99.7851 20.4617 101.674C20.5226 102.71 21.3148 103.289 22.7469 103.289H24.057L24.2094 105.635C24.3008 107.25 24.575 108.438 25.0015 109.261C25.7633 110.784 27.8047 112.582 29.2062 113.039C30.1508 113.344 30.2422 113.496 30.2422 114.562V115.72L32.1922 115.933C33.289 116.055 34.2945 116.055 34.4773 115.933C34.6601 115.842 34.8125 115.141 34.8125 114.41C34.8125 113.161 34.8734 113.069 35.7875 112.887C38.0726 112.369 40.175 110.358 41.0586 107.859C41.7594 105.879 41.5765 105.726 39.1695 105.94C37.25 106.123 37.0367 106.214 36.0922 107.28C35.4523 108.042 34.6297 108.56 33.8679 108.773C32.8015 109.078 32.4969 109.017 31.4304 108.408C29.907 107.555 29.3281 106.519 29.3281 104.691V103.319L32.314 103.228L35.2695 103.137L35.3609 101.095L35.4523 99.0538L32.4664 98.9624L29.4804 98.871L29.389 97.9569C28.8711 93.3866 34.0508 91.4976 36.4883 95.3976L37.2804 96.6163L39.3219 96.5249C41.2109 96.4335 41.3633 96.3726 41.4547 95.7327C41.607 94.6663 40.114 91.8632 38.7734 90.7358C38.1336 90.1874 37.0976 89.5476 36.4273 89.3038C34.7211 88.6944 34.5078 88.4202 34.5078 86.9577V85.6171H32.375H30.2422V87.2319Z" fill="url(#paint5_linear_74_1471)"/>
<path d="M189.838 25.5938C188.405 26.0204 186.913 27.0868 186.242 28.1532C185.816 28.8844 185.359 29.2196 184.627 29.311C184.109 29.4024 159.247 29.4024 129.418 29.3719C92.4594 29.311 74.8789 29.3719 74.1781 29.5852C73.0203 29.9508 72.5938 30.6516 72.5938 32.0836C72.5938 32.7844 72.8375 33.3329 73.3859 33.8508L74.1781 34.5821L129.144 34.6735L184.14 34.7649L185.938 33.3633C188.101 31.6875 192.58 29.5243 195.383 28.793C196.541 28.4883 199.1 28.2141 201.507 28.1227C205.955 27.9399 209.094 28.3665 212.445 29.6157C215.096 30.5907 216.01 30.6516 216.894 29.829C217.899 28.8844 217.838 27.6657 216.741 26.4469L215.858 25.4415L203.244 25.3805C196.327 25.35 190.295 25.4415 189.838 25.5938Z" fill="url(#paint6_linear_74_1471)"/>
<path d="M82.3132 43.0829C80.0585 44.3626 79.6929 47.836 81.6734 49.3899C82.3437 49.9079 82.7702 49.9993 83.989 49.8774C85.2687 49.7556 85.6648 49.5423 86.5484 48.5978C87.4929 47.5618 87.5843 47.3181 87.432 46.0993C87.1577 43.5399 84.3851 41.9251 82.3132 43.0829Z" fill="url(#paint7_linear_74_1471)"/>
<path d="M16.7749 47.1351C14.5507 49.5117 16.1655 53.1984 19.3952 53.1374C20.3702 53.107 20.7967 52.8937 21.6194 51.9796C22.7467 50.7609 22.9296 49.5726 22.1678 48.1406C21.4975 46.8609 20.553 46.3124 18.9686 46.3124C17.8108 46.3124 17.4147 46.4648 16.7749 47.1351Z" fill="url(#paint8_linear_74_1471)"/>
<path d="M121.252 48.2321C119.79 49.2681 115.098 52.5892 110.802 55.6056C106.536 58.5915 102.941 61.1813 102.88 61.3032C102.788 61.4251 103.032 62.1259 103.398 62.8267C104.007 64.0454 111.655 77.4821 115.494 84.0938C116.408 85.6782 118.602 89.4563 120.338 92.4727C122.075 95.4892 123.629 98.079 123.781 98.2313C124.025 98.4751 125.64 95.8852 132.465 83.9415C134.78 79.9196 138.193 73.9477 140.082 70.6876C141.941 67.4274 143.921 63.9845 144.439 63.0399L145.384 61.3032L141.971 58.8657C140.082 57.5251 135.725 54.5392 132.282 52.1931C128.839 49.8774 125.548 47.5923 124.969 47.1657L123.934 46.3431L121.252 48.2321ZM127.681 55.2704C129.631 56.4892 132.617 58.3782 134.293 59.4142C135.969 60.4806 137.462 61.4251 137.584 61.547C137.797 61.7298 131.612 65.2946 126.005 68.2501L124.116 69.2251L118.541 66.2696C111.045 62.2782 110.284 61.8212 110.527 61.6079C110.893 61.2118 123.629 53.0462 123.873 53.0462C123.994 53.0157 125.731 54.0212 127.681 55.2704ZM118.693 72.5767C121.496 74.5876 123.964 76.172 124.177 76.0806C124.756 75.8673 132.495 70.4743 134.598 68.8595C137.157 66.879 137.462 66.7267 136.791 67.7626C134.354 71.4798 124.391 88.8165 124.391 89.3345C124.391 89.4563 124.269 89.5782 124.116 89.5782C123.873 89.5782 122.197 86.7142 114.427 73.1251C112.843 70.3524 111.411 67.9759 111.259 67.7931C110.497 67.0009 111.137 67.0923 112.294 67.9454C112.995 68.4634 115.859 70.5657 118.693 72.5767Z" fill="url(#paint9_linear_74_1471)"/>
<path d="M159.369 47.4094C158.302 47.9884 157.602 49.329 157.602 50.7915C157.602 53.6251 160.709 55.1485 163.116 53.5337C164.579 52.5587 165.158 50.8219 164.518 49.2985C163.665 47.2571 161.258 46.3735 159.369 47.4094Z" fill="url(#paint10_linear_74_1471)"/>
<path d="M30.8211 58.4696L29.9375 59.3531V63.6188C29.9375 67.793 29.9375 67.8844 30.7297 68.6766C31.7047 69.6211 32.7711 69.6821 34.1422 68.8594L35.1172 68.25V63.7711C35.1172 61.2727 34.9953 59.1094 34.8734 58.9266C34.4469 58.3172 33.1367 57.586 32.4359 57.586C32.0398 57.586 31.3086 57.9821 30.8211 58.4696Z" fill="url(#paint11_linear_74_1471)"/>
<path d="M88.5289 66.8483C86.518 67.7624 85.7563 70.3827 86.975 72.2108C88.4375 74.3436 90.7227 74.5569 92.6117 72.6679C93.3735 71.9061 93.6172 71.4186 93.6172 70.5655C93.6172 67.7319 90.936 65.8124 88.5289 66.8483Z" fill="url(#paint12_linear_74_1471)"/>
<path d="M155.286 67.7624C154.372 68.6765 154.25 69.0116 154.25 70.3218C154.25 72.1195 154.981 73.2163 156.535 73.7343C158.851 74.496 161.258 72.6984 161.258 70.1695C161.258 69.0116 161.105 68.646 160.222 67.7624C159.338 66.8788 158.973 66.7265 157.754 66.7265C156.535 66.7265 156.17 66.8788 155.286 67.7624Z" fill="url(#paint13_linear_74_1471)"/>
<path d="M94.2265 101.552C89.7476 102.558 86.1827 105.574 84.2936 109.992C83.7452 111.302 83.7147 112.551 83.5624 137.719L83.4101 164.074L79.9061 164.592C74.6655 165.354 74.8179 165.354 74.5741 163.891C74.2085 161.758 72.3804 158.559 70.339 156.487C66.7741 152.892 62.7218 151.125 57.9077 151.125C54.8304 151.125 53.5507 151.582 53.0632 152.862C52.6976 153.837 52.9718 155.208 53.6116 155.756C53.9163 156 55.3179 156.213 57.3288 156.305C61.2288 156.518 63.0265 157.219 65.6468 159.626C70.8569 164.409 71.0093 172.941 65.9515 178.181C64.1538 180.04 63.6968 181.533 64.489 183.056C65.0374 184.123 65.8905 184.397 67.1397 183.97C68.0233 183.666 68.1452 183.757 71.0093 186.53C81.0944 196.249 91.1796 202.465 110.07 210.569C113.513 212.062 116.408 213.433 116.499 213.647C116.591 213.86 117.017 214.713 117.413 215.566C119.363 219.558 124.604 220.776 128.717 218.187C129.966 217.394 130.606 216.45 131.977 213.342C132.069 213.098 133.592 212.306 135.359 211.575C147.851 206.212 155.987 202.13 164.426 196.858C169.271 193.842 173.141 190.765 177.741 186.255C180.24 183.787 180.392 183.696 181.184 184.062C181.885 184.397 182.098 184.366 182.83 183.818C183.53 183.3 183.652 182.965 183.744 181.411C183.805 179.735 183.713 179.43 182.281 177.023C180.179 173.458 179.996 172.819 179.996 168.949C179.996 165.811 180.057 165.476 180.971 163.526C182.159 161.027 184.81 158.255 187.004 157.249C188.009 156.762 189.38 156.457 191.087 156.335C193.372 156.152 193.707 156.03 194.347 155.299C195.23 154.263 195.261 153.288 194.469 152.252C193.585 151.125 192.092 150.79 189.411 151.125C185.359 151.643 182.159 153.319 179.173 156.548C177.101 158.803 176.096 160.479 175.243 163.191C174.847 164.348 174.542 165.323 174.542 165.354C174.512 165.354 172.105 165.08 169.18 164.714L163.848 164.044L163.695 161.362C163.573 159.016 163.451 158.62 162.812 158.102C161.898 157.371 160.313 157.371 159.399 158.102L158.668 158.681L158.576 167.608C158.516 173.641 158.607 176.78 158.82 177.358C159.46 178.912 161.593 179.308 162.964 178.151L163.787 177.45L163.726 173.276C163.695 170.046 163.756 169.101 164.061 169.101C164.274 169.101 166.59 169.376 169.18 169.711C171.769 170.046 173.994 170.32 174.085 170.32C174.207 170.32 174.359 170.991 174.481 171.813C174.725 173.672 175.639 176.383 176.614 178.09L177.315 179.4L175.304 181.38C171.922 184.732 163.33 191.648 161.562 192.501L159.887 193.294H128.351C98.6749 193.294 96.7249 193.263 95.171 192.715C92.4897 191.831 90.1741 189.333 89.5343 186.651C89.2601 185.494 89.2601 113.709 89.5343 112.551C90.1132 110.114 91.3929 108.591 93.7694 107.494L95.2929 106.793L122.867 106.732C139.198 106.701 151.112 106.793 152.117 106.976C154.402 107.372 156.322 108.621 157.449 110.419L158.363 111.912L158.516 120.016C158.637 125.775 158.79 128.304 159.064 128.791C159.917 130.284 162.05 130.558 163.269 129.34L164.03 128.578L163.939 119.803C163.787 109.87 163.726 109.535 161.38 106.549C160.618 105.574 159.155 104.233 158.15 103.563C154.524 101.217 156.535 101.369 124.543 101.278C102.605 101.187 95.5061 101.278 94.2265 101.552ZM83.5624 177.237C83.5624 185.494 83.8366 188.571 84.6593 190.155C84.903 190.643 84.9944 191.039 84.8421 191.039C84.3546 191.039 78.2304 185.92 74.9093 182.782L71.5882 179.613L72.3804 178.455C73.4163 176.932 74.4218 174.281 74.8179 171.905L75.153 170.016L76.2499 169.985C76.8288 169.985 78.3522 169.802 79.6015 169.558C80.8507 169.345 82.2522 169.162 82.7397 169.132L83.5624 169.101V177.237ZM121.648 201.551V204.415L120.582 204.933C119.394 205.481 117.962 206.7 117.474 207.614C117.2 208.132 116.865 208.041 112.63 206.121C106.414 203.287 99.7718 200.119 98.4921 199.326L97.4257 198.656H109.552H121.648V201.551ZM149.801 198.93C149.344 199.387 142.276 202.861 136.608 205.39L131.276 207.797L130.454 206.791C129.997 206.243 128.93 205.451 128.077 205.055L126.493 204.293L126.676 202.952C126.767 202.221 126.828 200.941 126.828 200.149V198.656H138.467C145.536 198.656 149.984 198.778 149.801 198.93ZM126.188 209.96C128.565 212.306 125.792 216.023 122.928 214.317C121.161 213.281 120.856 211.301 122.227 209.899C123.476 208.68 124.939 208.68 126.188 209.96Z" fill="url(#paint14_linear_74_1471)"/>
<path d="M101.052 115.598C99.5891 116.238 99.254 117.762 100.32 118.828C100.899 119.407 101.326 119.438 113.97 119.438C126.584 119.438 127.072 119.407 127.59 118.828C128.321 118.036 128.26 116.787 127.468 115.995C126.828 115.324 126.645 115.324 114.397 115.263C104.464 115.202 101.813 115.263 101.052 115.598Z" fill="url(#paint15_linear_74_1471)"/>
<path d="M135.816 115.385C134.78 115.629 134.141 116.421 134.141 117.457C134.141 119.163 134.78 119.438 138.955 119.438C142.55 119.438 142.641 119.438 143.251 118.645C144.104 117.548 144.043 117.122 143.007 116.055C142.123 115.202 142.032 115.172 139.259 115.202C137.705 115.233 136.152 115.324 135.816 115.385Z" fill="url(#paint16_linear_74_1471)"/>
<path d="M242.396 118.645C241.238 119.163 240.477 120.504 240.477 122.058C240.477 122.911 240.72 123.398 241.513 124.191C242.396 125.074 242.762 125.227 243.98 125.227C245.138 125.227 245.565 125.074 246.266 124.343C247.82 122.82 247.85 121.083 246.327 119.438C245.352 118.31 243.798 118.005 242.396 118.645Z" fill="url(#paint17_linear_74_1471)"/>
<path d="M59.5534 121.692C57.1159 123.033 57.0854 126.872 59.4924 128.121C61.1073 128.944 62.4784 128.73 63.7885 127.39C65.1292 126.049 65.312 125.013 64.4893 123.307C63.6057 121.479 61.2901 120.717 59.5534 121.692Z" fill="url(#paint18_linear_74_1471)"/>
<path d="M1.96725 123.703C-0.0132214 124.922 -0.378846 127.542 1.236 129.248C2.72897 130.833 5.89772 130.101 6.78131 127.969C7.11647 127.116 7.11647 126.78 6.75084 125.744C5.95865 123.52 3.7649 122.576 1.96725 123.703Z" fill="url(#paint19_linear_74_1471)"/>
<path d="M101.021 124.313C99.5892 124.891 99.315 126.689 100.503 127.634C101.295 128.273 101.57 128.273 118.328 128.273H135.329L135.938 127.481C136.731 126.476 136.731 125.805 135.999 124.891L135.42 124.16L118.541 124.099C109.187 124.069 101.387 124.16 101.021 124.313Z" fill="url(#paint20_linear_74_1471)"/>
<path d="M186.638 128.578C186.242 128.73 185.663 129.309 185.328 129.858C184.14 131.808 184.78 134.184 186.699 135.098C189.472 136.408 192.793 133.423 191.635 130.65C190.782 128.608 188.68 127.755 186.638 128.578Z" fill="url(#paint21_linear_74_1471)"/>
<path d="M151.752 131.625C148.309 132.234 145.201 134.428 143.678 137.323C141.149 142.015 141.971 147.591 145.749 151.43C146.511 152.222 147.639 153.045 148.278 153.288C149.071 153.562 149.375 153.837 149.253 154.172C148.796 155.604 144.774 166.177 144.256 167.365C143.769 168.431 143.464 168.797 142.946 168.797C140.57 168.797 137.584 170.93 136.396 173.52C134.476 177.633 136.517 182.752 140.722 184.336C142.733 185.067 144.226 185.098 146.298 184.427C149.497 183.391 151.813 180.314 151.813 177.054C151.813 174.677 151.386 173.459 149.985 171.63L148.796 170.016L149.954 167.06C150.594 165.415 151.904 161.911 152.849 159.291L154.616 154.507L156.139 154.202C162.081 152.923 165.92 147.773 165.432 141.771C164.914 135.281 158.394 130.467 151.752 131.625ZM156.627 137.384C159.856 139.029 161.075 142.716 159.491 145.854C156.657 151.369 148.126 149.784 147.608 143.66C147.364 140.827 148.583 138.602 151.051 137.323C152.361 136.622 155.225 136.652 156.627 137.384ZM145.414 174.068C147.212 175.47 147.395 177.237 145.902 178.73C144.531 180.101 142.885 180.192 141.667 178.912C140.204 177.389 140.296 175.5 141.88 174.22C142.611 173.611 144.744 173.52 145.414 174.068Z" fill="url(#paint22_linear_74_1471)"/>
<path d="M100.686 133.057C100.473 133.148 100.107 133.605 99.8633 134.062C99.3148 135.098 99.65 136.287 100.595 136.774C100.991 137.018 106.81 137.109 118.236 137.109C135.024 137.109 135.298 137.109 136.091 136.47C137.096 135.677 137.127 134.398 136.182 133.514L135.481 132.844L118.266 132.874C108.821 132.874 100.899 132.966 100.686 133.057Z" fill="url(#paint23_linear_74_1471)"/>
<path d="M68.2674 140.644C65.8908 141.923 66.0127 145.823 68.4807 146.981C69.8213 147.621 70.7049 147.591 71.9237 146.859C73.3862 145.976 74.026 144.452 73.569 142.929C72.8377 140.552 70.3698 139.486 68.2674 140.644Z" fill="url(#paint24_linear_74_1471)"/>
<path d="M100.503 142.32C99.437 143.173 99.437 144.452 100.503 145.305C101.296 145.945 101.6 145.945 115.464 145.945H129.601L130.332 145.184C131.246 144.27 131.277 143.538 130.454 142.472L129.845 141.68H115.585C101.6 141.68 101.296 141.68 100.503 142.32Z" fill="url(#paint25_linear_74_1471)"/>
<path d="M13.332 148.809C11.5953 149.602 9.73672 151.521 8.88359 153.38C8.36563 154.507 8.30469 155.482 8.30469 162.977V171.326L11.3211 183.391C15.3125 199.266 16.1047 202.16 16.9883 203.988C17.7195 205.512 20.1875 208.102 24.8492 212.245L26.9211 214.104L26.8906 220.777C26.8906 226.413 26.9516 227.571 27.3477 228.12L27.8352 228.82H47.9141H67.993L68.45 228.15C68.8766 227.571 68.9375 226.23 68.9375 219.527C68.9375 210.661 68.8461 210.143 67.1703 209.991C66.6523 209.93 66.1953 209.869 66.1648 209.838C66.1648 209.808 66.043 207.858 65.8906 205.512C65.6469 201.673 65.4031 200.302 63.3313 192.197C61.0156 183.148 61.0156 183.117 61.0156 179.065C61.0156 174.281 60.65 172.849 58.8219 170.777C57.207 168.949 55.5617 168.127 53.0633 167.944C49.0719 167.67 45.5984 169.559 44.075 172.91C43.3742 174.403 43.3438 174.586 43.3133 184.641C43.3133 190.247 43.1914 195.091 43.0695 195.396C42.8867 195.914 42.582 195.792 39.7789 194.421C35.757 192.38 33.7461 190.338 32.7711 187.23C32.0398 184.884 27.8961 167.944 26.7078 162.398C24.8492 153.867 24.118 151.765 22.4117 150.15C20.1875 148.017 16.257 147.438 13.332 148.809ZM18.725 154.172C18.9992 154.507 19.3953 155.573 19.5781 156.548C19.7914 157.493 20.7359 161.698 21.7109 165.902C26.4336 186.073 27.4086 189.759 28.6273 192.045C30.6078 195.64 36.0008 199.418 41.7594 201.216C45.2023 202.282 46.7867 202.282 47.9445 201.124L48.8281 200.241V187.87V175.53L49.7422 174.495C50.8086 173.276 51.9359 172.971 53.2766 173.52C55.0133 174.251 55.2266 174.891 55.2266 179.339V183.33L57.8164 193.629C60.193 203.074 60.4062 204.171 60.4062 206.913V209.93H45.8422H31.3086L27.1344 206.609C23.6305 203.775 22.8688 203.013 22.1984 201.642C21.4672 200.119 19.5477 193.02 15.4648 176.749L13.7586 169.924L13.85 162.49L13.9414 155.025L14.9773 154.111C15.8305 153.349 16.1656 153.227 17.1102 153.38C17.7195 153.471 18.4508 153.837 18.725 154.172ZM41.9422 217.577C43.557 219.497 42.4297 222.117 39.9922 222.117C39.0781 222.117 38.6516 221.934 38.0422 221.173C37.5852 220.655 37.25 219.863 37.25 219.375C37.25 218.888 37.5852 218.095 38.0422 217.577C38.6516 216.816 39.0781 216.633 39.9922 216.633C40.9062 216.633 41.3328 216.816 41.9422 217.577Z" fill="url(#paint26_linear_74_1471)"/>
<path d="M228.898 148.352C226.796 148.992 224.877 150.638 223.902 152.588C223.597 153.136 222.5 157.432 221.434 162.094C218.935 172.88 215.279 187.474 214.761 188.723C214.213 190.034 212.659 191.77 211.074 192.867C209.703 193.812 206.595 195.427 205.529 195.762L204.828 195.945V185.707C204.828 179.4 204.706 174.952 204.493 174.159C204.31 173.459 203.67 172.209 203.061 171.387C199.892 167.243 193.829 166.695 189.929 170.198C187.613 172.27 187.156 173.794 187.156 179.339C187.156 183.361 187.065 184.092 186.273 186.895C183.896 195.091 182.312 202.434 182.098 206.182L181.885 209.93H181.002C180.545 209.93 179.874 210.204 179.539 210.539C178.96 211.118 178.93 211.545 178.93 219.314C178.93 226.2 178.991 227.571 179.417 228.15L179.874 228.82H199.953H220.032L220.489 228.15C220.885 227.571 220.977 226.322 220.977 220.746V214.043L224.206 211.301C228.045 208.041 229.843 206.152 230.666 204.567C231.519 202.891 232.677 198.748 235.906 185.859C237.43 179.735 238.953 173.733 239.288 172.514C239.867 170.473 239.898 169.559 239.806 162.429L239.715 154.598L238.801 152.801C237.765 150.79 235.723 148.992 233.773 148.413C232.494 148.048 230.056 148.017 228.898 148.352ZM232.677 153.898C234.17 155.086 234.2 155.33 234.109 163.16L234.048 170.473L231.458 180.832C227.68 195.975 226.156 201.459 225.486 202.373C224.785 203.379 220.062 207.431 217.899 208.894L216.345 209.93H202.055H187.766V206.639C187.766 203.531 187.887 202.8 190.203 193.72L192.641 184.092V179.613V175.134L193.524 174.251C194.255 173.55 194.682 173.367 195.748 173.367C196.48 173.367 197.394 173.58 197.79 173.855C199.313 174.921 199.405 175.622 199.344 187.809C199.313 194.025 199.313 199.418 199.313 199.753C199.344 200.119 199.709 200.789 200.197 201.246C200.959 202.008 201.141 202.069 203 201.947C205.316 201.764 209.551 200.363 212.232 198.839C214.609 197.529 217.716 194.726 218.722 193.02C219.148 192.288 219.758 190.887 220.093 189.912C220.702 188.175 225.577 168.858 227.832 159.26C228.777 155.238 229.081 154.385 229.721 153.867C230.727 153.075 231.641 153.105 232.677 153.898ZM209.124 217.516C210.952 219.375 209.916 222.117 207.357 222.117C206.595 222.117 206.047 221.873 205.377 221.203C204.584 220.38 204.463 220.106 204.615 219.162C205.041 216.663 207.388 215.81 209.124 217.516Z" fill="url(#paint27_linear_74_1471)"/>
<path d="M100.777 150.881C100.442 151.064 100.077 151.369 99.9548 151.552C99.4978 152.222 99.7415 153.471 100.412 154.111C101.113 154.781 101.295 154.781 110.619 154.781C119.973 154.781 120.095 154.781 120.734 154.111C121.588 153.166 121.527 151.917 120.552 151.155C119.759 150.546 119.394 150.516 110.558 150.516C104.312 150.546 101.204 150.637 100.777 150.881Z" fill="url(#paint28_linear_74_1471)"/>
<path d="M128.047 150.729C126.767 151.186 126.402 153.136 127.438 154.172C127.986 154.72 128.443 154.781 131.703 154.781C135.055 154.781 135.39 154.72 135.969 154.111C136.822 153.166 136.761 151.917 135.786 151.155C135.085 150.607 134.567 150.516 131.734 150.546C129.966 150.546 128.291 150.637 128.047 150.729Z" fill="url(#paint29_linear_74_1471)"/>
<path d="M100.381 160.052C99.5588 160.936 99.5283 161.789 100.29 162.734L100.869 163.465H117.779C133.988 163.465 134.72 163.434 135.329 162.886C136.152 162.155 136.152 160.753 135.36 159.961C134.75 159.352 134.354 159.352 117.901 159.352H101.021L100.381 160.052Z" fill="url(#paint30_linear_74_1471)"/>
<path d="M101.813 168.736C100.991 169.437 100.899 171.021 101.661 171.783C102.118 172.24 103.367 172.301 114.428 172.392C126.463 172.483 126.706 172.453 127.377 171.844C128.321 170.96 128.382 169.68 127.529 168.705C127.072 168.218 126.067 168.187 114.793 168.187C103.306 168.187 102.484 168.218 101.813 168.736Z" fill="url(#paint31_linear_74_1471)"/>
<path d="M100.93 177.633C100.107 178.455 100.168 179.644 101.082 180.527C101.783 181.259 101.966 181.289 106.201 181.289C109.948 181.289 110.71 181.198 111.228 180.741C112.203 179.948 112.355 178.821 111.594 177.846L110.954 177.023H106.231C101.935 177.023 101.478 177.084 100.93 177.633Z" fill="url(#paint32_linear_74_1471)"/>
<path d="M106.231 221.173C105.195 221.63 104.586 222.757 104.586 224.189C104.586 225.255 104.769 225.682 105.5 226.444C106.323 227.236 106.597 227.358 107.572 227.175C110.497 226.718 111.563 224.128 109.674 221.965C108.943 221.112 107.298 220.746 106.231 221.173Z" fill="url(#paint33_linear_74_1471)"/>
<path d="M138.071 221.752C137.31 222.422 137.096 222.848 137.066 223.884C137.005 226.322 139.046 227.815 141.21 226.901C143.586 225.895 143.83 222.818 141.667 221.508C140.295 220.655 139.199 220.746 138.071 221.752Z" fill="url(#paint34_linear_74_1471)"/>
<path d="M118.632 223.214C118.266 223.671 117.992 224.341 117.992 224.707C117.992 225.073 118.266 225.743 118.632 226.2C119.241 226.992 119.272 226.992 123.598 226.992C127.742 226.992 127.986 226.962 128.595 226.291C129.479 225.347 129.479 223.945 128.565 223.092C127.895 222.483 127.559 222.422 123.568 222.422C119.272 222.422 119.241 222.422 118.632 223.214Z" fill="url(#paint35_linear_74_1471)"/>
<defs>
<linearGradient id="paint0_linear_74_1471" x1="123.633" y1="-1.90735e-06" x2="123.633" y2="6.73853" gradientUnits="userSpaceOnUse">
<stop stop-color="#F55951"/>
<stop offset="1" stop-color="#371D32"/>
</linearGradient>
<linearGradient id="paint1_linear_74_1471" x1="132.527" y1="12.2078" x2="132.527" y2="173.977" gradientUnits="userSpaceOnUse">
<stop stop-color="#F55951"/>
<stop offset="1" stop-color="#371D32"/>
</linearGradient>
<linearGradient id="paint2_linear_74_1471" x1="76.6987" y1="20.3373" x2="76.6987" y2="26.5039" gradientUnits="userSpaceOnUse">
<stop stop-color="#F55951"/>
<stop offset="1" stop-color="#371D32"/>
</linearGradient>
<linearGradient id="paint3_linear_74_1471" x1="86.9151" y1="20.2802" x2="86.9151" y2="26.5078" gradientUnits="userSpaceOnUse">
<stop stop-color="#F55951"/>
<stop offset="1" stop-color="#371D32"/>
</linearGradient>
<linearGradient id="paint4_linear_74_1471" x1="42.9092" y1="21.7423" x2="42.9092" y2="173" gradientUnits="userSpaceOnUse">
<stop stop-color="#F55951"/>
<stop offset="1" stop-color="#371D32"/>
</linearGradient>
<linearGradient id="paint5_linear_74_1471" x1="30.9568" y1="85.6171" x2="30.9568" y2="116.025" gradientUnits="userSpaceOnUse">
<stop stop-color="#F55951"/>
<stop offset="1" stop-color="#371D32"/>
</linearGradient>
<linearGradient id="paint6_linear_74_1471" x1="145.101" y1="25.3747" x2="145.101" y2="34.7649" gradientUnits="userSpaceOnUse">
<stop stop-color="#F55951"/>
<stop offset="1" stop-color="#371D32"/>
</linearGradient>
<linearGradient id="paint7_linear_74_1471" x1="83.937" y1="42.7017" x2="83.937" y2="49.9255" gradientUnits="userSpaceOnUse">
<stop stop-color="#F55951"/>
<stop offset="1" stop-color="#371D32"/>
</linearGradient>
<linearGradient id="paint8_linear_74_1471" x1="19.1873" y1="46.3124" x2="19.1873" y2="53.1382" gradientUnits="userSpaceOnUse">
<stop stop-color="#F55951"/>
<stop offset="1" stop-color="#371D32"/>
</linearGradient>
<linearGradient id="paint9_linear_74_1471" x1="124.122" y1="46.3431" x2="124.122" y2="98.2466" gradientUnits="userSpaceOnUse">
<stop stop-color="#F55951"/>
<stop offset="1" stop-color="#371D32"/>
</linearGradient>
<linearGradient id="paint10_linear_74_1471" x1="161.189" y1="46.9738" x2="161.189" y2="54.1921" gradientUnits="userSpaceOnUse">
<stop stop-color="#F55951"/>
<stop offset="1" stop-color="#371D32"/>
</linearGradient>
<linearGradient id="paint11_linear_74_1471" x1="32.5273" y1="57.586" x2="32.5273" y2="69.4338" gradientUnits="userSpaceOnUse">
<stop stop-color="#F55951"/>
<stop offset="1" stop-color="#371D32"/>
</linearGradient>
<linearGradient id="paint12_linear_74_1471" x1="90.0032" y1="66.5639" x2="90.0032" y2="73.958" gradientUnits="userSpaceOnUse">
<stop stop-color="#F55951"/>
<stop offset="1" stop-color="#371D32"/>
</linearGradient>
<linearGradient id="paint13_linear_74_1471" x1="157.754" y1="66.7265" x2="157.754" y2="73.9109" gradientUnits="userSpaceOnUse">
<stop stop-color="#F55951"/>
<stop offset="1" stop-color="#371D32"/>
</linearGradient>
<linearGradient id="paint14_linear_74_1471" x1="123.968" y1="101.244" x2="123.968" y2="219.551" gradientUnits="userSpaceOnUse">
<stop stop-color="#F55951"/>
<stop offset="1" stop-color="#371D32"/>
</linearGradient>
<linearGradient id="paint15_linear_74_1471" x1="113.899" y1="115.242" x2="113.899" y2="119.438" gradientUnits="userSpaceOnUse">
<stop stop-color="#F55951"/>
<stop offset="1" stop-color="#371D32"/>
</linearGradient>
<linearGradient id="paint16_linear_74_1471" x1="138.991" y1="115.195" x2="138.991" y2="119.438" gradientUnits="userSpaceOnUse">
<stop stop-color="#F55951"/>
<stop offset="1" stop-color="#371D32"/>
</linearGradient>
<linearGradient id="paint17_linear_74_1471" x1="243.963" y1="118.315" x2="243.963" y2="125.227" gradientUnits="userSpaceOnUse">
<stop stop-color="#F55951"/>
<stop offset="1" stop-color="#371D32"/>
</linearGradient>
<linearGradient id="paint18_linear_74_1471" x1="61.3451" y1="121.265" x2="61.3451" y2="128.605" gradientUnits="userSpaceOnUse">
<stop stop-color="#F55951"/>
<stop offset="1" stop-color="#371D32"/>
</linearGradient>
<linearGradient id="paint19_linear_74_1471" x1="3.62558" y1="123.226" x2="3.62558" y2="130.102" gradientUnits="userSpaceOnUse">
<stop stop-color="#F55951"/>
<stop offset="1" stop-color="#371D32"/>
</linearGradient>
<linearGradient id="paint20_linear_74_1471" x1="118.149" y1="124.093" x2="118.149" y2="128.273" gradientUnits="userSpaceOnUse">
<stop stop-color="#F55951"/>
<stop offset="1" stop-color="#371D32"/>
</linearGradient>
<linearGradient id="paint21_linear_74_1471" x1="188.3" y1="128.267" x2="188.3" y2="135.416" gradientUnits="userSpaceOnUse">
<stop stop-color="#F55951"/>
<stop offset="1" stop-color="#371D32"/>
</linearGradient>
<linearGradient id="paint22_linear_74_1471" x1="150.572" y1="131.452" x2="150.572" y2="184.908" gradientUnits="userSpaceOnUse">
<stop stop-color="#F55951"/>
<stop offset="1" stop-color="#371D32"/>
</linearGradient>
<linearGradient id="paint23_linear_74_1471" x1="118.234" y1="132.844" x2="118.234" y2="137.109" gradientUnits="userSpaceOnUse">
<stop stop-color="#F55951"/>
<stop offset="1" stop-color="#371D32"/>
</linearGradient>
<linearGradient id="paint24_linear_74_1471" x1="70.1348" y1="140.174" x2="70.1348" y2="147.436" gradientUnits="userSpaceOnUse">
<stop stop-color="#F55951"/>
<stop offset="1" stop-color="#371D32"/>
</linearGradient>
<linearGradient id="paint25_linear_74_1471" x1="115.375" y1="141.68" x2="115.375" y2="145.945" gradientUnits="userSpaceOnUse">
<stop stop-color="#F55951"/>
<stop offset="1" stop-color="#371D32"/>
</linearGradient>
<linearGradient id="paint26_linear_74_1471" x1="38.6211" y1="148.068" x2="38.6211" y2="228.82" gradientUnits="userSpaceOnUse">
<stop stop-color="#F55951"/>
<stop offset="1" stop-color="#371D32"/>
</linearGradient>
<linearGradient id="paint27_linear_74_1471" x1="209.388" y1="148.119" x2="209.388" y2="228.82" gradientUnits="userSpaceOnUse">
<stop stop-color="#F55951"/>
<stop offset="1" stop-color="#371D32"/>
</linearGradient>
<linearGradient id="paint28_linear_74_1471" x1="110.526" y1="150.516" x2="110.526" y2="154.781" gradientUnits="userSpaceOnUse">
<stop stop-color="#F55951"/>
<stop offset="1" stop-color="#371D32"/>
</linearGradient>
<linearGradient id="paint29_linear_74_1471" x1="131.701" y1="150.541" x2="131.701" y2="154.781" gradientUnits="userSpaceOnUse">
<stop stop-color="#F55951"/>
<stop offset="1" stop-color="#371D32"/>
</linearGradient>
<linearGradient id="paint30_linear_74_1471" x1="117.845" y1="159.352" x2="117.845" y2="163.465" gradientUnits="userSpaceOnUse">
<stop stop-color="#F55951"/>
<stop offset="1" stop-color="#371D32"/>
</linearGradient>
<linearGradient id="paint31_linear_74_1471" x1="114.635" y1="168.187" x2="114.635" y2="172.431" gradientUnits="userSpaceOnUse">
<stop stop-color="#F55951"/>
<stop offset="1" stop-color="#371D32"/>
</linearGradient>
<linearGradient id="paint32_linear_74_1471" x1="106.214" y1="177.023" x2="106.214" y2="181.289" gradientUnits="userSpaceOnUse">
<stop stop-color="#F55951"/>
<stop offset="1" stop-color="#371D32"/>
</linearGradient>
<linearGradient id="paint33_linear_74_1471" x1="107.603" y1="220.994" x2="107.603" y2="227.249" gradientUnits="userSpaceOnUse">
<stop stop-color="#F55951"/>
<stop offset="1" stop-color="#371D32"/>
</linearGradient>
<linearGradient id="paint34_linear_74_1471" x1="140.108" y1="220.927" x2="140.108" y2="227.172" gradientUnits="userSpaceOnUse">
<stop stop-color="#F55951"/>
<stop offset="1" stop-color="#371D32"/>
</linearGradient>
<linearGradient id="paint35_linear_74_1471" x1="123.623" y1="222.422" x2="123.623" y2="226.992" gradientUnits="userSpaceOnUse">
<stop stop-color="#F55951"/>
<stop offset="1" stop-color="#371D32"/>
</linearGradient>
</defs>
</svg>
