
<svg width="553" height="765" viewBox="0 0 553 765" fill="none" xmlns="http://www.w3.org/2000/svg">
<path d="M246.841 0.724609C178.041 9.5246 124.974 36.1912 76.0406 86.5912C37.1073 126.858 13.6406 174.191 3.37395 233.125C-0.492718 254.991 -0.892718 292.058 2.57395 314.058C10.4406 364.591 32.0406 411.258 66.8406 452.991C121.374 518.458 211.241 556.725 295.774 550.458C306.707 549.658 316.441 548.725 317.374 548.325C318.841 547.791 318.574 546.591 316.041 542.858C312.307 537.391 311.774 528.858 314.707 522.058C317.374 515.525 324.974 509.658 333.774 507.258C365.907 498.458 389.507 488.191 411.641 473.258C438.441 455.391 460.307 433.525 477.241 407.791C496.574 378.325 507.241 349.525 512.174 314.191C513.774 302.191 521.774 294.325 533.374 293.391C539.374 292.858 541.774 293.391 546.707 296.191L552.841 299.658V280.058C552.841 203.125 522.574 131.258 468.041 78.3246C423.907 35.6579 367.641 8.59131 307.507 1.12463C296.974 -0.0753784 255.774 -0.475403 246.841 0.724609ZM200.974 55.2579C204.574 57.1246 210.841 63.6579 211.774 66.7246C212.307 68.0579 213.107 68.0579 215.774 66.8579C217.507 66.0579 225.641 63.9246 233.641 62.1913C246.174 59.5246 251.774 59.1246 274.841 59.1246C295.641 59.1246 304.041 59.7913 312.841 61.6579C331.907 65.7913 354.974 74.0579 371.507 82.5912L387.241 90.8579L391.641 87.6579C397.774 83.3913 410.307 82.5912 416.841 86.1913C422.307 89.2579 426.974 95.5246 428.974 102.725C430.041 106.858 429.907 109.391 428.307 114.191L426.174 120.191L430.841 125.658C446.841 144.058 458.707 160.458 467.374 175.658C476.441 191.791 477.507 193.125 481.107 193.125C489.507 193.125 497.907 200.858 500.707 211.125C506.707 234.058 478.174 249.658 461.907 232.325C452.974 222.725 453.374 209.258 462.974 199.258L466.707 195.391L461.507 185.391C453.774 170.458 442.574 153.925 431.107 140.858L420.974 129.258L411.107 130.058C400.707 130.858 393.774 128.591 388.441 122.725C385.241 119.258 382.307 110.991 382.174 105.525C382.174 100.325 379.507 98.1913 363.641 89.9246C349.241 82.5912 329.107 75.6579 310.174 71.6579C284.041 66.3246 246.041 68.1913 222.174 76.1913C214.441 78.8579 213.374 79.6579 212.307 83.6579C209.374 93.7913 197.107 101.125 186.307 99.1246C166.574 95.5246 160.174 71.7913 175.241 57.7913C181.641 51.7913 192.174 50.7246 200.974 55.2579ZM132.574 120.058C135.507 122.991 134.307 125.391 124.974 135.125C99.7739 161.658 84.1739 190.325 74.8406 226.858C73.1073 233.791 71.2406 242.991 70.8406 247.258C70.0406 254.991 70.0406 255.125 74.1739 257.791C93.2406 269.925 84.5739 301.125 62.1739 301.125C47.2406 301.125 36.1739 287.125 39.5073 272.591C41.1073 264.991 44.7073 260.858 52.5739 257.125C56.8406 255.125 59.6406 252.725 60.0406 251.125C60.3073 249.658 61.7739 241.791 63.3739 233.658C69.9073 198.858 85.5073 166.058 108.707 138.325C124.174 119.791 128.841 116.325 132.574 120.058ZM292.841 131.791C316.174 134.725 333.507 140.991 352.841 153.658C391.107 178.858 412.974 217.125 416.307 264.458C418.574 299.391 408.307 333.391 386.574 361.658C363.241 392.191 325.241 411.658 284.307 413.925C241.907 416.325 204.707 402.591 176.041 373.925C140.041 338.058 126.574 285.925 139.641 234.058C145.374 210.991 160.041 186.991 179.641 168.325C209.641 139.925 250.707 126.725 292.841 131.791ZM97.9073 375.125C123.374 415.658 163.107 448.325 205.907 463.791C218.441 468.325 238.974 473.658 249.241 475.125C254.041 475.791 255.507 475.525 255.507 474.191C255.507 471.125 263.774 462.191 268.307 460.325C280.707 455.125 295.241 462.058 299.507 475.258C304.174 489.391 292.841 505.125 278.041 505.125C267.641 505.125 261.374 500.725 254.307 488.058C253.774 487.125 245.907 484.858 236.974 482.991C176.841 470.591 126.974 436.591 91.5073 383.791C82.0406 369.658 80.9739 363.791 88.0406 363.791C90.0406 363.791 92.7073 366.858 97.9073 375.125Z" fill="url(#paint0_linear_63_779)"/>
<path d="M351.884 595.535C346.516 598.313 343.277 602.294 341.797 607.848C341.149 610.163 340.871 635.714 341.056 681.077L341.334 750.788L343.833 755.047C351.791 768.471 370.855 768.285 378.166 754.677C380.109 751.066 380.202 749.4 380.664 727.922C381.035 707.554 381.312 704.87 382.793 703.388C384.274 701.815 387.42 701.722 426.843 701.722C466.451 701.722 469.413 701.815 471.171 703.388C472.929 704.962 473.022 706.536 473.299 727.922L473.669 750.788L476.261 755.232C477.741 757.639 480.61 760.787 482.646 762.175C485.885 764.305 487.458 764.675 492.641 764.675C500.784 764.675 506.707 761.25 510.131 754.491L512.537 749.955L512.815 679.411L513 608.959L510.409 603.96C505.134 593.869 494.769 590.351 484.96 595.165C478.389 598.313 475.243 602.849 474.132 610.626C473.669 613.866 473.207 626.642 473.207 638.862C473.207 658.488 473.022 661.358 471.634 662.469C470.431 663.487 462.194 663.765 427.213 663.765H384.181L382.423 661.543C380.757 659.507 380.664 657.655 380.664 634.603C380.664 619.42 380.294 608.681 379.646 607.108C377.703 601.923 374.001 597.665 369.282 595.258C362.989 592.203 358.177 592.203 351.884 595.535Z" fill="#371D32"/>
<path d="M54.9847 595.8C49.5543 597.183 45.0443 600.873 42.5592 606.039L40.3502 610.467L40.0741 676.423C39.89 712.676 40.0741 744.593 40.3502 747.176C41.1786 753.725 45.5045 760.182 50.9349 762.95C59.955 767.654 71.6442 763.965 76.6144 754.924C78.5472 751.327 78.8234 749.482 79.2836 736.198C79.6517 722.731 79.8358 721.439 81.6766 720.24C83.1493 719.133 87.5673 718.856 103.859 718.856C126.869 718.856 132.023 718.026 142.792 712.676C155.862 706.218 167.919 692.105 173.073 677.161C176.111 668.305 176.939 654.837 174.822 645.151C170.312 623.935 153.837 605.67 132.759 598.475C125.488 595.984 124.015 595.8 107.08 595.523C63.6366 594.785 58.6664 594.785 54.9847 595.8ZM123.371 635.466C142.148 643.122 143.896 669.781 126.224 678.637C121.53 681.035 121.07 681.035 101.926 681.035C85.3583 681.035 82.1368 680.851 80.9403 679.559C79.6517 678.36 79.4676 675.039 79.4676 657.143C79.4676 640.816 79.7438 635.835 80.6642 635.097C81.4005 634.451 87.1991 633.897 94.7465 633.805C111.498 633.436 119.782 633.897 123.371 635.466Z" fill="#371D32"/>
<path d="M246.594 649.341C231.325 650.96 216.381 659.457 207.122 671.676C199.244 681.953 195.914 691.178 195.102 704.288C193.477 731.64 211.508 756.726 237.579 763.361C246.107 765.546 258.939 765.546 267.467 763.361C293.132 756.807 311 733.905 311 707.606C311 697.571 309.457 690.612 305.477 682.277C294.756 659.861 271.284 646.671 246.594 649.341ZM266.736 685.352C282.168 702.346 285.01 705.825 285.01 707.767C285.01 708.577 282.005 712.542 278.269 716.669C274.614 720.796 267.792 728.403 263.244 733.582C258.289 739.246 254.228 743.131 253.416 743.131C252.604 743.131 249.437 740.379 246.35 736.9C243.264 733.42 236.523 725.975 231.325 720.31C226.127 714.565 221.66 709.143 221.416 708.253C220.929 706.473 221.822 705.34 232.624 693.282C250.168 673.861 252.685 671.109 253.173 671.109C253.497 671.109 259.589 677.502 266.736 685.352Z" fill="#371D32"/>
<defs>
<linearGradient id="paint0_linear_63_779" x1="-3.76389e-06" y1="276" x2="553" y2="276" gradientUnits="userSpaceOnUse">
<stop stop-color="#371D32"/>
<stop offset="0.5" stop-color="#543C52"/>
<stop offset="1" stop-color="#F55951"/>
</linearGradient>
</defs>
</svg>