<svg width="553" height="552" viewBox="0 0 553 552" fill="none" xmlns="http://www.w3.org/2000/svg">
<path d="M246.635 0.724609C177.835 9.5246 124.768 36.1912 75.835 86.5912C36.9017 126.858 13.435 174.191 3.16838 233.125C-0.698285 254.991 -1.09828 292.058 2.36838 314.058C10.235 364.591 31.835 411.258 66.635 452.991C121.168 518.458 211.035 556.725 295.568 550.458C306.502 549.658 316.235 548.725 317.168 548.325C318.635 547.791 318.368 546.591 315.835 542.858C312.102 537.391 311.568 528.858 314.502 522.058C317.168 515.525 324.768 509.658 333.568 507.258C365.702 498.458 389.302 488.191 411.435 473.258C438.235 455.391 460.102 433.525 477.035 407.791C496.368 378.325 507.035 349.525 511.968 314.191C513.568 302.191 521.568 294.325 533.168 293.391C539.168 292.858 541.568 293.391 546.502 296.191L552.635 299.658V280.058C552.635 203.125 522.368 131.258 467.835 78.3246C423.702 35.6579 367.435 8.59131 307.302 1.12463C296.768 -0.0753784 255.568 -0.475403 246.635 0.724609ZM200.768 55.2579C204.368 57.1246 210.635 63.6579 211.568 66.7246C212.102 68.0579 212.902 68.0579 215.568 66.8579C217.302 66.0579 225.435 63.9246 233.435 62.1913C245.968 59.5246 251.568 59.1246 274.635 59.1246C295.435 59.1246 303.835 59.7913 312.635 61.6579C331.702 65.7913 354.768 74.0579 371.302 82.5912L387.035 90.8579L391.435 87.6579C397.568 83.3913 410.102 82.5912 416.635 86.1913C422.102 89.2579 426.768 95.5246 428.768 102.725C429.835 106.858 429.702 109.391 428.102 114.191L425.968 120.191L430.635 125.658C446.635 144.058 458.502 160.458 467.168 175.658C476.235 191.791 477.302 193.125 480.902 193.125C489.302 193.125 497.702 200.858 500.502 211.125C506.502 234.058 477.968 249.658 461.702 232.325C452.768 222.725 453.168 209.258 462.768 199.258L466.502 195.391L461.302 185.391C453.568 170.458 442.368 153.925 430.902 140.858L420.768 129.258L410.902 130.058C400.502 130.858 393.568 128.591 388.235 122.725C385.035 119.258 382.102 110.991 381.968 105.525C381.968 100.325 379.302 98.1913 363.435 89.9246C349.035 82.5912 328.902 75.6579 309.968 71.6579C283.835 66.3246 245.835 68.1913 221.968 76.1913C214.235 78.8579 213.168 79.6579 212.102 83.6579C209.168 93.7913 196.902 101.125 186.102 99.1246C166.368 95.5246 159.968 71.7913 175.035 57.7913C181.435 51.7913 191.968 50.7246 200.768 55.2579ZM132.368 120.058C135.302 122.991 134.102 125.391 124.768 135.125C99.5684 161.658 83.9684 190.325 74.635 226.858C72.9017 233.791 71.035 242.991 70.635 247.258C69.835 254.991 69.835 255.125 73.9684 257.791C93.035 269.925 84.3684 301.125 61.9684 301.125C47.035 301.125 35.9684 287.125 39.3017 272.591C40.9017 264.991 44.5017 260.858 52.3684 257.125C56.635 255.125 59.435 252.725 59.835 251.125C60.1017 249.658 61.5684 241.791 63.1684 233.658C69.7017 198.858 85.3017 166.058 108.502 138.325C123.968 119.791 128.635 116.325 132.368 120.058ZM292.635 131.791C315.968 134.725 333.302 140.991 352.635 153.658C390.902 178.858 412.768 217.125 416.102 264.458C418.368 299.391 408.102 333.391 386.368 361.658C363.035 392.191 325.035 411.658 284.102 413.925C241.702 416.325 204.502 402.591 175.835 373.925C139.835 338.058 126.368 285.925 139.435 234.058C145.168 210.991 159.835 186.991 179.435 168.325C209.435 139.925 250.502 126.725 292.635 131.791ZM97.7017 375.125C123.168 415.658 162.902 448.325 205.702 463.791C218.235 468.325 238.768 473.658 249.035 475.125C253.835 475.791 255.302 475.525 255.302 474.191C255.302 471.125 263.568 462.191 268.102 460.325C280.502 455.125 295.035 462.058 299.302 475.258C303.968 489.391 292.635 505.125 277.835 505.125C267.435 505.125 261.168 500.725 254.102 488.058C253.568 487.125 245.702 484.858 236.768 482.991C176.635 470.591 126.768 436.591 91.3017 383.791C81.835 369.658 80.7684 363.791 87.835 363.791C89.835 363.791 92.5017 366.858 97.7017 375.125Z" fill="url(#paint0_linear_63_797)"/>
<defs>
<linearGradient id="paint0_linear_63_797" x1="-0.20557" y1="276" x2="552.794" y2="276" gradientUnits="userSpaceOnUse">
<stop stop-color="#371D32"/>
<stop offset="0.5" stop-color="#543C52"/>
<stop offset="1" stop-color="#F55951"/>
</linearGradient>
</defs>
</svg>
